HIERARCHY
ROOT Hips
{
	OFFSET -3.958830 18.904000 13.208200
	CHANNELS 6 Xposition Yposition Zposition Zrotation Yrotation Xrotation 
	JOINT LHipJoint
	{
		OFFSET 0.000000 0.000000 0.000000
		CHANNELS 3 Zrotation Yrotation Xrotation
		JOINT LeftUpLeg
		{
			OFFSET 1.800000 -1.400000 0.085000
			CHANNELS 3 Zrotation Yrotation Xrotation
			JOINT LeftLeg
			{
				OFFSET 2.215000 -6.000000 0.000000
				CHANNELS 3 Zrotation Yrotation Xrotation
				JOINT LeftFoot
				{
					OFFSET 2.500000 -6.900000 0.000000
					CHANNELS 3 Zrotation Yrotation Xrotation
					JOINT LeftToeBase
					{
						OFFSET 0.200000 -0.500000 1.950000
						CHANNELS 3 Zrotation Yrotation Xrotation
						End Site
						{
							OFFSET 0.000000 0.000000 0.000000
						}
					}
				}
			}
		}
	}
	JOINT RHipJoint
	{
		OFFSET 0.000000 0.000000 0.000000
		CHANNELS 3 Zrotation Yrotation Xrotation
		JOINT RightUpLeg
		{
			OFFSET -1.800000 -1.400000 0.085000
			CHANNELS 3 Zrotation Yrotation Xrotation
			JOINT RightLeg
			{
				OFFSET -2.215000 -6.000000 0.000000
				CHANNELS 3 Zrotation Yrotation Xrotation
				JOINT RightFoot
				{
					OFFSET -2.500000 -6.900000 0.000000
					CHANNELS 3 Zrotation Yrotation Xrotation
					JOINT RightToeBase
					{
						OFFSET -0.200000 -0.500000 1.950000
						CHANNELS 3 Zrotation Yrotation Xrotation
						End Site
						{
							OFFSET 0.000000 0.000000 0.000000
						}
					}
				}
			}
		}
	}
	JOINT LowerBack
	{
		OFFSET 0.000000 0.000000 0.000000
		CHANNELS 3 Zrotation Yrotation Xrotation
		JOINT Spine
		{
			OFFSET -0.087000 1.940000 -0.288900
			CHANNELS 3 Zrotation Yrotation Xrotation
			JOINT Spine1
			{
				OFFSET 0.000000 1.950000 0.060000
				CHANNELS 3 Zrotation Yrotation Xrotation
				JOINT Neck
				{
					OFFSET 0.000000 0.000000 0.000000
					CHANNELS 3 Zrotation Yrotation Xrotation
					JOINT Neck1
					{
						OFFSET 0.000000 1.600000 0.340000
						CHANNELS 3 Zrotation Yrotation Xrotation
						JOINT Head
						{
							OFFSET 0.000000 1.667000 -0.240000
							CHANNELS 3 Zrotation Yrotation Xrotation
							End Site
							{
								OFFSET 0.000000 0.000000 0.000000
							}
						}
					}
				}
				JOINT LeftShoulder
				{
					OFFSET 0.000000 0.000000 0.000000
					CHANNELS 3 Zrotation Yrotation Xrotation
					JOINT LeftArm
					{
						OFFSET 2.700000 1.550000 -0.730000
						CHANNELS 3 Zrotation Yrotation Xrotation
						JOINT LeftForeArm
						{
							OFFSET 5.450000 0.000000 0.000000
							CHANNELS 3 Zrotation Yrotation Xrotation
							JOINT LeftHand
							{
								OFFSET 3.450000 0.000000 0.000000
								CHANNELS 3 Zrotation Yrotation Xrotation
								JOINT LeftHandIndex1
								{
									OFFSET 0.750000 0.000000 0.000000
									CHANNELS 3 Zrotation Yrotation Xrotation
									End Site
									{
										OFFSET 0.000000 0.000000 0.000000
									}
								}
							}
						}
					}
				}
				JOINT RightShoulder
				{
					OFFSET 0.000000 0.000000 0.000000
					CHANNELS 3 Zrotation Yrotation Xrotation
					JOINT RightArm
					{
						OFFSET -2.700000 1.550000 -0.730000
						CHANNELS 3 Zrotation Yrotation Xrotation
						JOINT RightForeArm
						{
							OFFSET -5.450000 0.000000 0.000000
							CHANNELS 3 Zrotation Yrotation Xrotation
							JOINT RightHand
							{
								OFFSET -3.450000 0.000000 0.000000
								CHANNELS 3 Zrotation Yrotation Xrotation
								JOINT RightHandIndex1
								{
									OFFSET -0.750000 0.000000 0.000000
									CHANNELS 3 Zrotation Yrotation Xrotation
									End Site
									{
										OFFSET 0.000000 0.000000 0.000000
									}
								}
							}
						}
					}
				}
			}
		}
	}
}
MOTION
Frames: 6
Frame Time: 0.016667
-0.720760 16.426090 -3.860820 -3.455501 -17.386397 1.944032 -15.044353 13.686660 3.891722 11.887646 -5.327794 -26.791029 -6.096143 9.850610 35.824855 -0.970075 7.756756 1.895212 -0.859690 -1.187800 -0.941270 18.228439 -10.799018 2.378059 -9.936016 2.354307 -24.755177 -0.673069 -5.294165 26.877354 0.280618 -3.604812 3.263592 -0.265100 1.144330 -0.284090 -3.390929 -3.156731 -7.750675 5.865097 1.383869 21.594440 0.547442 4.092483 -6.115319 -5.555504 -7.023902 -8.887007 -15.268311 4.621944 25.728846 5.082840 -2.304770 -8.760850 -14.444412 -4.669259 -0.267836 -21.330094 -21.258246 -2.055610 106.473768 -16.425339 -27.924403 -4.385118 2.218323 0.751600 0.388320 -0.728040 -0.047990 26.708664 7.045196 7.779934 47.480722 -15.703114 -11.203996 -4.953611 14.690944 -0.424424 1.651328 -0.476748 -1.163170 1.077900 1.170980 -0.259360 
-0.751070 16.405260 -3.862120 -4.538590 -18.907982 2.335210 -15.063904 13.701008 3.882242 14.115198 -4.319303 -26.792224 -7.078299 10.454949 34.802884 -0.851280 7.696588 1.881670 -0.759540 -1.024380 -0.910320 18.223917 -10.687757 2.469169 -7.557792 3.178742 -25.040282 -2.349068 -4.580136 27.806865 0.232665 -3.546415 3.307350 -0.238830 1.061060 -0.292900 -3.340136 -3.217548 -7.805787 6.461136 0.489266 21.532858 1.061821 3.225802 -6.940902 -4.937832 -7.743109 -8.794285 -16.862124 7.189212 26.581070 6.138400 -0.325410 -8.381040 -17.694590 -3.918248 0.272115 -24.525195 -16.359130 -2.420087 118.151273 -16.908028 -34.816421 -4.247990 2.358354 0.705840 0.340190 -0.682950 -0.011200 28.716616 7.214365 7.188546 42.146100 -12.591126 -9.602987 -7.996672 14.716735 -0.576027 1.736474 -0.609190 -1.056730 0.989640 1.060810 -0.225520 
-0.781450 16.387510 -3.857700 -5.663658 -20.076489 2.691150 -15.068970 13.739157 3.843196 15.895914 -3.390964 -26.432290 -7.631869 10.635796 33.155205 -0.792760 7.519233 1.923128 -0.706410 -0.936940 -0.889010 18.227139 -10.591078 2.568618 -5.465537 3.838579 -24.936797 -3.561167 -4.041999 28.353099 0.185501 -3.494114 3.337294 -0.237430 1.007670 -0.293710 -3.324777 -3.298540 -7.847918 7.237529 -0.668666 21.790165 1.129535 2.132739 -8.554160 -4.327975 -8.380413 -8.529536 -18.354654 9.460543 27.331577 7.357640 1.293010 -8.656760 -20.260978 -2.604077 0.640559 -27.865909 -11.845442 -2.846256 127.925448 -16.393168 -41.657660 -4.145625 2.460409 0.696640 0.295520 -0.636480 0.010920 30.051747 6.589701 6.271364 38.356791 -9.570114 -9.188947 -10.005608 16.514565 -0.848865 1.789914 -0.672013 -0.992050 0.939970 0.994470 -0.201910 
-0.818710 16.370580 -3.846610 -6.251883 -21.143514 2.928754 -15.079230 13.825479 3.767859 16.804559 -2.670211 -25.873350 -7.561058 10.482528 31.523171 -0.800558 7.318595 1.994663 -0.730500 -0.965370 -0.911330 18.213695 -10.513057 2.672181 -4.108997 4.376091 -24.934147 -4.215112 -3.747579 28.858338 0.166884 -3.490146 3.352770 -0.269770 1.017850 -0.287500 -3.268493 -3.430797 -7.874060 7.334603 -1.505848 21.920793 1.331232 1.213837 -10.506528 -3.837854 -8.848748 -8.156211 -19.464071 11.399734 27.885184 8.300010 2.555560 -8.519750 -22.553544 -1.064196 0.867601 -30.838714 -7.448168 -3.335161 136.032094 -15.822193 -49.680256 -4.116921 2.498538 0.712010 0.287980 -0.626170 0.013030 31.418365 5.578660 5.320541 35.731052 -7.314910 -9.480347 -11.260918 19.996964 -1.129197 1.780057 -0.680849 -0.989150 0.935080 1.003510 -0.195180 
-0.855760 16.363420 -3.835220 -6.378268 -21.967684 2.715538 -15.075327 13.997682 3.637982 16.816543 -2.153717 -25.036449 -6.625911 9.932243 30.104721 -0.799927 6.927327 2.134217 -0.734310 -0.959620 -0.906520 18.189112 -10.516017 2.751939 -3.506357 4.616946 -24.748785 -4.329792 -3.670629 29.274132 0.140521 -3.497570 3.366125 -0.302730 0.979130 -0.298650 -3.196753 -3.576819 -7.879239 6.908898 -2.024318 22.339678 1.316010 0.538403 -12.310345 -3.217278 -8.880518 -7.954936 -19.934397 12.749228 29.295433 9.041470 3.835310 -8.565700 -24.031080 0.440047 1.175135 -34.491000 -4.453677 -3.348626 142.386981 -15.267762 -58.636791 -4.046628 2.536201 0.731260 0.254930 -0.594600 0.010800 31.757184 4.295461 4.383740 35.735457 -5.919387 -10.395590 -12.998154 25.532490 -1.634552 1.769156 -0.697305 -0.966530 0.903530 0.975670 -0.194590 
-0.888560 16.367470 -3.825680 -6.310519 -22.550978 2.346947 -15.052903 14.219824 3.467964 16.168283 -1.814066 -24.158727 -4.836159 9.044688 28.990801 -0.771760 6.372718 2.335580 -0.697560 -0.893820 -0.861480 18.165448 -10.575859 2.825317 -3.521022 4.676327 -24.576588 -3.598062 -3.904340 29.680472 0.097980 -3.519142 3.369694 -0.324850 0.887540 -0.323060 -3.143568 -3.708642 -7.867021 6.589829 -2.326002 22.863198 0.920937 0.128631 -13.860958 -2.412279 -8.851107 -7.986056 -20.539669 13.495070 31.273435 9.212350 4.965220 -8.824590 -25.442464 1.728780 1.326698 -38.381218 -2.822728 -3.081949 146.219837 -15.335625 -67.054176 -3.928292 2.573216 0.744300 0.191090 -0.532700 0.016670 31.671555 3.132689 3.815653 37.627621 -5.704993 -11.636862 -16.120796 32.328735 -2.682863 1.775025 -0.730820 -0.911580 0.845090 0.891740 -0.188440 
